# MagicaVoxel @ ephtracy

# material
mtllib Snowball4.mtl

# normals
vn -1 0 0
vn 1 0 0
vn 0 0 1
vn 0 0 -1
vn 0 -1 0
vn 0 1 0

# texcoords
vt 0.150391 0.5

# verts
v -1 0 1
v -1 1 1
v -1 1 -0
v -1 0 -0
v -1 1 -1
v -1 0 -1
v -1 1 2
v -1 2 2
v -1 2 1
v -2 1 1
v -2 2 1
v -2 2 -0
v -2 1 -0
v -2 2 -1
v -2 1 -1
v -1 2 -1
v -1 2 -2
v -1 1 -2
v -1 3 2
v -1 3 1
v -2 3 1
v -2 3 -0
v -2 3 -1
v -1 3 -1
v -1 3 -2
v -1 4 1
v -1 4 -0
v -1 3 -0
v -1 4 -1
v 1 0 1
v 1 0 -0
v 1 1 -0
v 1 1 1
v 1 0 -1
v 1 1 -1
v 1 1 2
v 1 2 1
v 1 2 2
v 2 1 1
v 2 1 -0
v 2 2 -0
v 2 2 1
v 2 1 -1
v 2 2 -1
v 1 1 -2
v 1 2 -2
v 1 2 -1
v 1 3 1
v 1 3 2
v 2 3 -0
v 2 3 1
v 2 3 -1
v 1 3 -2
v 1 3 -1
v 1 3 -0
v 1 4 -0
v 1 4 1
v 1 4 -1
v 0 0 1
v 0 1 1
v 0 1 2
v 0 2 2
v 0 3 2
v 0 3 1
v 0 4 1
v 0 1 -1
v 0 0 -1
v 0 2 -2
v 0 1 -2
v 0 3 -2
v 0 4 -1
v 0 3 -1
v 0 0 -0
v 0 4 -0

# faces

usemtl palette

f 1/1/1 2/1/1 3/1/1 4/1/1

f 4/1/1 3/1/1 5/1/1 6/1/1

f 7/1/1 8/1/1 9/1/1 2/1/1

f 10/1/1 11/1/1 12/1/1 13/1/1

f 13/1/1 12/1/1 14/1/1 15/1/1

f 5/1/1 16/1/1 17/1/1 18/1/1

f 8/1/1 19/1/1 20/1/1 9/1/1

f 11/1/1 21/1/1 22/1/1 12/1/1

f 12/1/1 22/1/1 23/1/1 14/1/1

f 16/1/1 24/1/1 25/1/1 17/1/1

f 20/1/1 26/1/1 27/1/1 28/1/1

f 28/1/1 27/1/1 29/1/1 24/1/1

f 30/1/2 31/1/2 32/1/2 33/1/2

f 31/1/2 34/1/2 35/1/2 32/1/2

f 36/1/2 33/1/2 37/1/2 38/1/2

f 39/1/2 40/1/2 41/1/2 42/1/2

f 40/1/2 43/1/2 44/1/2 41/1/2

f 35/1/2 45/1/2 46/1/2 47/1/2

f 38/1/2 37/1/2 48/1/2 49/1/2

f 42/1/2 41/1/2 50/1/2 51/1/2

f 41/1/2 44/1/2 52/1/2 50/1/2

f 47/1/2 46/1/2 53/1/2 54/1/2

f 48/1/2 55/1/2 56/1/2 57/1/2

f 55/1/2 54/1/2 58/1/2 56/1/2

f 1/1/3 59/1/3 60/1/3 2/1/3

f 59/1/3 30/1/3 33/1/3 60/1/3

f 7/1/3 61/1/3 62/1/3 8/1/3

f 61/1/3 36/1/3 38/1/3 62/1/3

f 10/1/3 2/1/3 9/1/3 11/1/3

f 33/1/3 39/1/3 42/1/3 37/1/3

f 8/1/3 62/1/3 63/1/3 19/1/3

f 62/1/3 38/1/3 49/1/3 63/1/3

f 11/1/3 9/1/3 20/1/3 21/1/3

f 37/1/3 42/1/3 51/1/3 48/1/3

f 20/1/3 64/1/3 65/1/3 26/1/3

f 64/1/3 48/1/3 57/1/3 65/1/3

f 6/1/4 5/1/4 66/1/4 67/1/4

f 67/1/4 66/1/4 35/1/4 34/1/4

f 15/1/4 14/1/4 16/1/4 5/1/4

f 35/1/4 47/1/4 44/1/4 43/1/4

f 18/1/4 17/1/4 68/1/4 69/1/4

f 69/1/4 68/1/4 46/1/4 45/1/4

f 14/1/4 23/1/4 24/1/4 16/1/4

f 47/1/4 54/1/4 52/1/4 44/1/4

f 17/1/4 25/1/4 70/1/4 68/1/4

f 68/1/4 70/1/4 53/1/4 46/1/4

f 24/1/4 29/1/4 71/1/4 72/1/4

f 72/1/4 71/1/4 58/1/4 54/1/4

f 1/1/5 4/1/5 73/1/5 59/1/5

f 59/1/5 73/1/5 31/1/5 30/1/5

f 4/1/5 6/1/5 67/1/5 73/1/5

f 73/1/5 67/1/5 34/1/5 31/1/5

f 7/1/5 2/1/5 60/1/5 61/1/5

f 61/1/5 60/1/5 33/1/5 36/1/5

f 10/1/5 13/1/5 3/1/5 2/1/5

f 33/1/5 32/1/5 40/1/5 39/1/5

f 13/1/5 15/1/5 5/1/5 3/1/5

f 32/1/5 35/1/5 43/1/5 40/1/5

f 5/1/5 18/1/5 69/1/5 66/1/5

f 66/1/5 69/1/5 45/1/5 35/1/5

f 19/1/6 63/1/6 64/1/6 20/1/6

f 63/1/6 49/1/6 48/1/6 64/1/6

f 21/1/6 20/1/6 28/1/6 22/1/6

f 48/1/6 51/1/6 50/1/6 55/1/6

f 22/1/6 28/1/6 24/1/6 23/1/6

f 55/1/6 50/1/6 52/1/6 54/1/6

f 24/1/6 72/1/6 70/1/6 25/1/6

f 72/1/6 54/1/6 53/1/6 70/1/6

f 26/1/6 65/1/6 74/1/6 27/1/6

f 65/1/6 57/1/6 56/1/6 74/1/6

f 27/1/6 74/1/6 71/1/6 29/1/6

f 74/1/6 56/1/6 58/1/6 71/1/6

# numNormals 6
# numTexCoords 1
# numVerts 74
# numFaces 72
